<svg xmlns="http://www.w3.org/2000/svg" viewBox="0 0 502.13 500.4">
  <g>
    <g>
      <path d="M149.86,470.93c0,10.06,8.89,16.96,17.85,16.96l142.7.02c9.78,0,18.09-7.65,18.13-17.31l.14-31.32c.02-3.59,3.48-6.45,6.36-6.22,3.87.3,6.16,3.19,6.16,7.05v29.5c0,16.24-12.71,30.73-29.78,30.73l-143.76.06c-17.35,0-30.42-13.81-30.47-31.07l.03-229.46c0-27.19,12.68-51.48,34-67.85-1.59-39.23,29.65-71.16,67.89-71.2,38.33-.04,69.71,31.94,68.04,71.18,21.26,16.42,34.01,40.65,34.02,67.83l.04,142.89c-.16,3.95-2.7,6.47-6.04,6.67-3.58.21-6.52-2.47-6.52-6.76l-.03-142.77c0-19.35-7.4-37.13-21.3-50.9l-.21,74.84c-.1,37.66-31.45,67.35-68.02,67.22-37.46-.13-67.84-30.6-67.92-68.54l-.15-73.41c-13.1,13.5-21.11,30.12-21.12,48.73l-.03,233.14ZM294.55,263.31l.05-94.54c.02-31.11-25.44-55.51-55.6-55.35-30.16.16-55.17,24.41-55.18,55.37l-.05,93.93c-.02,31.01,24.8,55.49,55.26,55.69,29.65.19,55.51-23.76,55.53-55.09Z"/>
      <path d="M378.61,133.64c-.06,4.45-2.88,6.58-6,6.82-3.21.25-6.62-2.29-6.65-6.2-.22-31.78-25.58-57.42-57.42-57.66-3.59-.03-6.11-2.71-6.46-5.56-.43-3.52,2.13-7.07,6.17-7.1,31.53-.18,57.16-25.27,57.64-57.03.06-3.84,2.57-6.67,5.89-6.89,3.9-.26,6.76,2.63,6.83,6.92.53,31.63,26.01,56.76,57.55,56.96,3.7.02,6.18,3.02,6.32,6.16.16,3.58-2.53,6.47-6.68,6.53-31.2.41-56.74,25.2-57.19,57.06ZM372.24,105.02c7.8-15.94,19.67-27.37,34.82-34.82-15.9-7.73-27.23-19.26-34.84-34.91-7.69,16.11-19.49,27.61-34.93,34.97,15.83,7.51,27.16,19,34.95,34.76Z"/>
      <path d="M438.1,359.19c0,4.07-4.22,5.85-6.73,5.57-2.62-.29-5.78-2.79-5.8-5.95-.22-32.37-25.86-57.96-58.05-58-3.38,0-5.97-3.51-5.92-6.18.07-3.46,2.63-6.43,6.58-6.46,31.87-.26,57.17-25.88,57.38-57.8.02-3.36,3.06-5.93,5.68-6.09,3.38-.21,6.9,2.16,6.92,6.06.13,32.18,25.87,57.7,57.93,57.9,3.65.02,6.05,3.29,6.04,6.33-.01,3.06-2.41,6.23-6.03,6.26-32.1.27-57.92,25.65-58,58.37ZM431.82,329.43c7.74-15.93,19.57-27.46,34.97-34.94-16.12-7.69-27.19-19.28-34.95-34.88-7.82,16.28-19.67,27.69-34.97,34.87,15.88,7.58,27.29,18.95,34.95,34.94Z"/>
      <path d="M76.61,190c-.08,4.4-2.73,6.66-5.78,6.97-3.41.35-6.81-2.31-6.87-6.23-.42-32.26-25.96-57.63-58.12-57.7-3.6,0-6.05-3.84-5.83-6.56.28-3.38,2.89-6,6.76-6.05,31.5-.41,56.67-25.58,57.15-57.11.06-3.8,2.58-6.62,6.02-6.88,2.64-.2,6.59,2.5,6.6,5.95.09,32.12,25.44,57.68,57.65,58.06,3.52.04,6.23,2.98,6.32,5.96.09,3.42-2.39,6.64-6.43,6.68-31.3.28-56.86,25.03-57.47,56.91ZM70.08,161.76c7.59-15.27,19-27.39,35.24-35.06-15.63-7.14-27.15-18.79-35.1-34.74-7.44,15.24-18.7,27.02-34.64,34.66,14.87,7.8,27.28,18.77,34.5,35.15Z"/>
    </g>
  </g>
</svg>